<svg id="Layer_1" data-name="Layer 1" xmlns="http://www.w3.org/2000/svg" viewBox="0 0 350.19 114.74"><defs><style>.cls-1{fill:none;}.cls-2{fill:#007ad0;}.cls-3{fill:#0066ba;}.cls-4{fill:#00a2e5;}</style></defs><title>cr_hrz_rgb_pos</title><rect class="cls-1" width="350.19" height="114.74"/><path d="M502.77,308a11.56,11.56,0,0,1-.95,4.9,9.5,9.5,0,0,1-2.5,3.35,10,10,0,0,1-3.55,1.91,14,14,0,0,1-8.19,0,10.14,10.14,0,0,1-3.56-1.91,9.31,9.31,0,0,1-2.5-3.35,11.7,11.7,0,0,1-.94-4.9V294.2h5.25v13.32a8.48,8.48,0,0,0,.45,2.94,5.11,5.11,0,0,0,1.24,2,4.69,4.69,0,0,0,1.86,1.09,8,8,0,0,0,4.6,0,4.69,4.69,0,0,0,1.86-1.09,5.1,5.1,0,0,0,1.24-2,8.45,8.45,0,0,0,.45-2.94V294.2h5.25ZM454.4,293.6a7.06,7.06,0,0,0-6.31,3.5v-2.9h-5.16v23.92h5.21V304.71c0-4,1.7-6.16,5.11-6.16a8.48,8.48,0,0,1,3.25.6l1.6-4.9a11.12,11.12,0,0,0-3.7-.65Zm18.54,0a7.06,7.06,0,0,0-6.31,3.5v-2.9h-5.16v23.92h5.21V304.71c0-4,1.7-6.16,5.11-6.16a8.48,8.48,0,0,1,3.25.6l1.6-4.9a11.12,11.12,0,0,0-3.7-.65Zm-69,12.56c0,7.26,5.06,12.56,12.76,12.56a12.53,12.53,0,0,0,8.61-2.85l-2.5-4.2a10.52,10.52,0,0,1-6.26,2.15c-4.15,0-7.21-3.05-7.21-7.66s3.05-7.61,7.21-7.66a10.52,10.52,0,0,1,6.26,2.15l2.5-4.2a12.53,12.53,0,0,0-8.61-2.85c-7.71,0-12.76,5.31-12.76,12.56ZM527.75,296.1a17.89,17.89,0,0,0-9.76-2.5c-6.06,0-10,2.9-10,7.66,0,3.9,2.9,6.31,8.26,7.06l2.45.35c2.85.4,4.2,1.15,4.2,2.5,0,1.85-1.9,2.9-5.46,2.9a12.75,12.75,0,0,1-8-2.5l-2.45,4.05a17.26,17.26,0,0,0,10.36,3.1c6.91,0,10.91-3.25,10.91-7.81,0-4.2-3.15-6.41-8.36-7.16l-2.45-.35c-2.25-.3-4.05-.75-4.05-2.35,0-1.75,1.7-2.8,4.55-2.8a15.42,15.42,0,0,1,7.46,2.05Zm-90.94-10.17a3.62,3.62,0,0,1-3.7,3.65,3.57,3.57,0,0,1-3.65-3.65,3.62,3.62,0,0,1,3.65-3.7A3.66,3.66,0,0,1,436.81,285.93Zm-1,32.19h-5.24V294.2h5.24Zm97.68-2.22a1.53,1.53,0,0,1,.6.12,1.57,1.57,0,0,1,.49.33,1.53,1.53,0,0,1,.33.48,1.49,1.49,0,0,1,0,1.18,1.54,1.54,0,0,1-.33.48,1.6,1.6,0,0,1-.49.33,1.5,1.5,0,0,1-.6.12A1.55,1.55,0,0,1,532,318a1.5,1.5,0,0,1,0-1.18,1.52,1.52,0,0,1,.82-.81A1.57,1.57,0,0,1,533.45,315.9Zm0,2.7a1.13,1.13,0,0,0,.46-.09,1.21,1.21,0,0,0,.37-.25,1.19,1.19,0,0,0,0-1.68,1.18,1.18,0,0,0-.37-.25,1.15,1.15,0,0,0-.46-.09,1.19,1.19,0,0,0-.47.09,1.19,1.19,0,0,0-.38,1.93,1.19,1.19,0,0,0,.38.25A1.18,1.18,0,0,0,533.45,318.61Zm.09-1.9a.64.64,0,0,1,.42.12.4.4,0,0,1,.15.33.38.38,0,0,1-.12.29.56.56,0,0,1-.33.14l.46.53h-.36l-.43-.53h-.14v.53h-.3v-1.41Zm-.35.26v.38h.35a.34.34,0,0,0,.19,0,.16.16,0,0,0,.07-.14.16.16,0,0,0-.07-.14.34.34,0,0,0-.19,0Z" transform="translate(-220.9 -248.63)"/><g id="_Group_" data-name="&lt;Group&gt;"><rect class="cls-2" x="85.24" y="29.07" width="31.5" height="56.61"/><path id="_Path_" data-name="&lt;Path&gt;" class="cls-3" d="M308.14,306a35.94,35.94,0,0,1,13.75-28.3,36,36,0,1,0,0,56.61A35.94,35.94,0,0,1,308.14,306Z" transform="translate(-220.9 -248.63)"/><path class="cls-4" d="M376.7,328.31v-1.16h.47v-.24H376v.24h.47v1.16Zm2.31,0v-1.4h-.36l-.42,1-.42-1h-.37v1.4h.26v-1.05l.39.91h.27l.39-.91v1.06Z" transform="translate(-220.9 -248.63)"/><path class="cls-4" d="M380.13,306a36,36,0,0,1-58.25,28.3,36,36,0,0,0,0-56.61A36,36,0,0,1,380.13,306Z" transform="translate(-220.9 -248.63)"/></g></svg>