<svg id="Layer_1" data-name="Layer 1" xmlns="http://www.w3.org/2000/svg" viewBox="0 0 150.73 124.6"><defs><style>.cls-1{fill:none;}.cls-2{fill:#007ad0;}.cls-3{fill:#0066ba;}.cls-4{fill:#00a2e5;}</style></defs><title>cr_vrt_rgb_pos</title><rect class="cls-1" width="150.73" height="124.6"/><path d="M410.64,346.86a4.63,4.63,0,0,1-.38,2,3.8,3.8,0,0,1-1,1.34,4,4,0,0,1-1.42.77,5.61,5.61,0,0,1-3.28,0,4.06,4.06,0,0,1-1.43-.77,3.73,3.73,0,0,1-1-1.34,4.69,4.69,0,0,1-.38-2v-5.52h2.1v5.33a3.39,3.39,0,0,0,.18,1.18,2,2,0,0,0,.5.79,1.88,1.88,0,0,0,.75.44,3.2,3.2,0,0,0,1.84,0,1.88,1.88,0,0,0,.75-.44,2,2,0,0,0,.5-.79,3.38,3.38,0,0,0,.18-1.18v-5.33h2.1Zm-19.37-5.76a2.83,2.83,0,0,0-2.53,1.4v-1.16h-2.06v9.58h2.08v-5.37c0-1.58.68-2.47,2-2.47a3.39,3.39,0,0,1,1.3.24l.64-2a4.46,4.46,0,0,0-1.48-.26Zm7.42,0a2.83,2.83,0,0,0-2.53,1.4v-1.16h-2.06v9.58h2.08v-5.37c0-1.58.68-2.47,2-2.47a3.39,3.39,0,0,1,1.3.24l.64-2a4.46,4.46,0,0,0-1.48-.26Zm-27.65,5a4.84,4.84,0,0,0,5.11,5,5,5,0,0,0,3.45-1.14l-1-1.68a4.21,4.21,0,0,1-2.51.86,3.07,3.07,0,0,1,0-6.13,4.21,4.21,0,0,1,2.51.86l1-1.68a5,5,0,0,0-3.45-1.14,4.84,4.84,0,0,0-5.11,5Zm49.61-4a7.16,7.16,0,0,0-3.91-1c-2.43,0-4,1.16-4,3.07,0,1.56,1.16,2.53,3.31,2.83l1,.14c1.14.16,1.68.46,1.68,1,0,.74-.76,1.16-2.19,1.16a5.11,5.11,0,0,1-3.19-1l-1,1.62a6.91,6.91,0,0,0,4.15,1.24c2.77,0,4.37-1.3,4.37-3.13s-1.26-2.57-3.35-2.87l-1-.14c-.9-.12-1.62-.3-1.62-.94s.68-1.12,1.82-1.12a6.18,6.18,0,0,1,3,.82Zm3.5,7.43a1,1,0,0,1,.38.07,1,1,0,0,1,.31.2,1,1,0,0,1,.21.3.93.93,0,0,1,0,.74,1,1,0,0,1-.21.3,1,1,0,0,1-.31.2.94.94,0,0,1-.38.08,1,1,0,0,1-.9-.58.94.94,0,0,1,0-.74,1,1,0,0,1,.21-.3,1,1,0,0,1,.31-.2A1,1,0,0,1,424.16,349.53Zm0,1.69a.71.71,0,0,0,.29-.06.75.75,0,0,0,.23-.16.74.74,0,0,0-.23-1.2.72.72,0,0,0-.29-.06.75.75,0,0,0-.29.06.73.73,0,0,0-.24.16.74.74,0,0,0,.53,1.26Zm.06-1.19a.4.4,0,0,1,.26.08.25.25,0,0,1,.09.21.24.24,0,0,1-.07.18.35.35,0,0,1-.21.09l.29.33h-.23l-.27-.33H424v.33h-.19V350Zm-.22.17v.24h.22a.21.21,0,0,0,.12,0,.1.1,0,0,0,0-.09.1.1,0,0,0,0-.09.21.21,0,0,0-.12,0ZM384.23,338a1.45,1.45,0,0,1-1.48,1.46,1.43,1.43,0,0,1-1.46-1.46,1.45,1.45,0,0,1,1.46-1.48A1.46,1.46,0,0,1,384.23,338Zm-.42,12.89h-2.1v-9.58h2.1Z" transform="translate(-320.63 -243.7)"/><rect class="cls-2" x="59.61" y="24.95" width="31.5" height="56.61"/><path id="_Path_" data-name="&lt;Path&gt;" class="cls-3" d="M382.25,296.95A35.94,35.94,0,0,1,396,268.65a36,36,0,1,0,0,56.61A35.94,35.94,0,0,1,382.25,296.95Z" transform="translate(-320.63 -243.7)"/><path class="cls-4" d="M450.81,319.26V318.1h.47v-.24h-1.19v.24h.47v1.16Zm2.31,0v-1.4h-.36l-.42,1-.42-1h-.37v1.4h.26V318.2l.39.91h.27l.39-.91v1.06Z" transform="translate(-320.63 -243.7)"/><path class="cls-4" d="M454.24,296.95A36,36,0,0,1,396,325.25a36,36,0,0,0,0-56.61,36,36,0,0,1,58.25,28.3Z" transform="translate(-320.63 -243.7)"/></svg>